<svg width="24" height="24" viewBox="0 0 24 24" fill="none" xmlns="http://www.w3.org/2000/svg">
<rect width="24" height="24" fill="#1E1E1E"/>
<path d="M12 2C6.5 2 2 6.5 2 12C2 17.5 6.5 22 12 22C17.5 22 22 17.5 22 12C22 6.5 17.5 2 12 2ZM9.6 17.2C9.38 17.2 9.08 17.12 8.8 17L8.23 18.4L7.09 18L7.25 17.61C8.45 14.59 9.83 11.15 15 10C15 10 9 10 7.05 15.55C7.05 15.55 6 14.5 6 13.3C6 12.1 7.2 9.55 10.2 8.95C11.05 8.78 12 8.65 12.94 8.5C15.3 8.18 17.57 7.86 18 7C18 7 16.2 17.2 9.6 17.2Z" fill="black"/>
</svg>
