<svg width="817" height="746" viewBox="0 0 817 746" fill="none" xmlns="http://www.w3.org/2000/svg">
<g clip-path="url(#clip0_4635_7273)">
<g opacity="0.15">
<path d="M-5429.68 -1050.5L-2108.62 -2968.79L1212.45 -1050.5L-2108.62 867.806L-5429.68 -1050.5Z" stroke="#231F20" stroke-miterlimit="10"/>
<path d="M-2134.96 852.576L1186.09 -1065.71" stroke="#231F20" stroke-miterlimit="10"/>
<path d="M-2161.32 837.346L1159.74 -1080.94" stroke="#231F20" stroke-miterlimit="10"/>
<path d="M-2187.69 822.133L1133.38 -1096.17" stroke="#231F20" stroke-miterlimit="10"/>
<path d="M-2214.05 806.903L1107.02 -1111.4" stroke="#231F20" stroke-miterlimit="10"/>
<path d="M-2240.4 791.673L1080.67 -1126.61" stroke="#231F20" stroke-miterlimit="10"/>
<path d="M-2266.76 776.459L1054.31 -1141.84" stroke="#231F20" stroke-miterlimit="10"/>
<path d="M-2293.12 761.23L1027.95 -1157.07" stroke="#231F20" stroke-miterlimit="10"/>
<path d="M-2319.48 746L1001.58 -1172.29" stroke="#231F20" stroke-miterlimit="10"/>
<path d="M-2345.83 730.786L975.238 -1187.52" stroke="#231F20" stroke-miterlimit="10"/>
<path d="M-2372.19 715.556L948.876 -1202.75" stroke="#231F20" stroke-miterlimit="10"/>
<path d="M-2398.55 700.327L922.514 -1217.96" stroke="#231F20" stroke-miterlimit="10"/>
<path d="M-2424.9 685.113L896.168 -1233.19" stroke="#231F20" stroke-miterlimit="10"/>
<path d="M-2451.26 669.883L869.805 -1248.42" stroke="#231F20" stroke-miterlimit="10"/>
<path d="M-2477.62 654.654L843.443 -1263.63" stroke="#231F20" stroke-miterlimit="10"/>
<path d="M-2503.98 639.424L817.081 -1278.86" stroke="#231F20" stroke-miterlimit="10"/>
<path d="M-2530.33 624.21L790.735 -1294.09" stroke="#231F20" stroke-miterlimit="10"/>
<path d="M-2556.69 608.981L764.373 -1309.31" stroke="#231F20" stroke-miterlimit="10"/>
<path d="M-2583.05 593.751L738.011 -1324.54" stroke="#231F20" stroke-miterlimit="10"/>
<path d="M-2609.4 578.537L711.649 -1339.77" stroke="#231F20" stroke-miterlimit="10"/>
<path d="M-2635.76 563.307L685.303 -1354.98" stroke="#231F20" stroke-miterlimit="10"/>
<path d="M-2662.12 548.078L658.941 -1370.21" stroke="#231F20" stroke-miterlimit="10"/>
<path d="M-2688.49 532.864L632.578 -1385.44" stroke="#231F20" stroke-miterlimit="10"/>
<path d="M-2714.83 517.634L606.232 -1400.65" stroke="#231F20" stroke-miterlimit="10"/>
<path d="M-2741.2 502.404L579.87 -1415.88" stroke="#231F20" stroke-miterlimit="10"/>
<path d="M-2767.56 487.191L553.508 -1431.11" stroke="#231F20" stroke-miterlimit="10"/>
<path d="M-2793.92 471.961L527.146 -1446.33" stroke="#231F20" stroke-miterlimit="10"/>
<path d="M-2820.27 456.731L500.8 -1461.56" stroke="#231F20" stroke-miterlimit="10"/>
<path d="M-2846.63 441.518L474.438 -1476.79" stroke="#231F20" stroke-miterlimit="10"/>
<path d="M-2872.99 426.288L448.075 -1492" stroke="#231F20" stroke-miterlimit="10"/>
<path d="M-2899.34 411.058L421.73 -1507.23" stroke="#231F20" stroke-miterlimit="10"/>
<path d="M-2925.7 395.845L395.368 -1522.46" stroke="#231F20" stroke-miterlimit="10"/>
<path d="M-2952.06 380.615L369.005 -1537.67" stroke="#231F20" stroke-miterlimit="10"/>
<path d="M-2978.42 365.385L342.643 -1552.9" stroke="#231F20" stroke-miterlimit="10"/>
<path d="M-3004.77 350.171L316.297 -1568.13" stroke="#231F20" stroke-miterlimit="10"/>
<path d="M-3031.13 334.941L289.935 -1583.36" stroke="#231F20" stroke-miterlimit="10"/>
<path d="M-3057.49 319.712L263.573 -1598.58" stroke="#231F20" stroke-miterlimit="10"/>
<path d="M-3083.84 304.498L237.211 -1613.81" stroke="#231F20" stroke-miterlimit="10"/>
<path d="M-3110.2 289.269L210.865 -1629.04" stroke="#231F20" stroke-miterlimit="10"/>
<path d="M-3136.56 274.039L184.503 -1644.25" stroke="#231F20" stroke-miterlimit="10"/>
<path d="M-3162.93 258.825L158.14 -1659.48" stroke="#231F20" stroke-miterlimit="10"/>
<path d="M-3189.27 243.595L131.794 -1674.71" stroke="#231F20" stroke-miterlimit="10"/>
<path d="M-3215.63 228.366L105.433 -1689.92" stroke="#231F20" stroke-miterlimit="10"/>
<path d="M-3242 213.136L79.0704 -1705.15" stroke="#231F20" stroke-miterlimit="10"/>
<path d="M-3268.36 197.922L52.708 -1720.38" stroke="#231F20" stroke-miterlimit="10"/>
<path d="M-3294.7 182.692L26.3623 -1735.6" stroke="#231F20" stroke-miterlimit="10"/>
<path d="M-3321.07 167.463L3.84665e-05 -1750.83" stroke="#231F20" stroke-miterlimit="10"/>
</g>
<path fill-rule="evenodd" clip-rule="evenodd" d="M26.2972 500.178C26.1835 502.34 27.5641 504.534 30.4229 506.175L402.417 721.083C407.923 724.252 416.825 724.252 422.331 721.083L794.325 506.175C799.831 503.006 799.831 497.853 794.325 494.668L422.331 279.76C416.825 276.574 407.923 276.574 402.417 279.76L49.1509 483.843L49.2808 480.446L26.2809 472.563V500.178H26.2972Z" fill="#7DCDC5"/>
<path d="M30.5041 468.402L391.697 259.719C397.203 256.55 406.104 256.55 411.61 259.719L772.803 468.402C778.31 471.571 778.31 476.724 772.803 479.909L411.61 688.592C406.104 691.761 397.203 691.761 391.697 688.592L30.5041 479.909C24.9977 476.74 24.9977 471.587 30.5041 468.402Z" fill="#299194"/>
<path d="M94.1924 384.581L392.005 556.741L689.818 384.581L392.005 212.421L94.1924 384.581Z" fill="#53B882"/>
<path d="M94.1924 384.581V482.949L392.005 655.109V556.741L94.1924 384.581Z" fill="#13324B"/>
<path d="M353.12 547.184L352.178 546.647C343.261 541.576 335.919 531.531 335.773 524.217L368.989 543.137C369.135 550.451 362.037 552.255 353.12 547.184Z" fill="#257467"/>
<path d="M312.773 523.453L311.831 522.917C302.913 517.846 295.571 507.801 295.425 500.487L328.642 519.406C328.788 526.72 321.69 528.524 312.773 523.453Z" fill="#257467"/>
<path d="M347.256 530.735C347.354 535.936 342.302 537.22 335.967 533.612C329.633 530.003 324.403 522.852 324.289 517.651V517.309L347.24 530.394V530.735H347.256Z" fill="#257467"/>
<path d="M297.634 511.377L292.209 508.288C285.647 504.55 280.222 497.138 280.125 491.758L309.329 508.402C309.443 513.782 304.196 515.131 297.634 511.377Z" fill="#257467"/>
<path d="M264.937 496.098L263.995 495.562C255.078 490.491 247.736 480.446 247.59 473.131L280.807 492.051C280.953 499.365 273.855 501.169 264.937 496.098Z" fill="#257467"/>
<path d="M224.298 472.953L223.356 472.416C214.438 467.345 207.097 457.3 206.95 449.986L240.167 468.905C240.313 476.22 233.215 478.024 224.298 472.953Z" fill="#257467"/>
<path d="M258.781 479.861C258.879 485.062 253.827 486.346 247.493 482.737C241.158 479.129 235.928 471.977 235.814 466.776V466.435L258.765 479.519V479.861H258.781Z" fill="#257467"/>
<path d="M209.159 460.892L203.751 457.804C197.188 454.066 191.763 446.654 191.666 441.274L220.871 457.918C220.984 463.298 215.738 464.647 209.176 460.892H209.159Z" fill="#257467"/>
<path d="M177.713 445.695L176.771 445.159C167.854 440.088 160.512 430.043 160.366 422.728L193.583 441.648C193.729 448.962 186.631 450.766 177.713 445.695Z" fill="#257467"/>
<path d="M137.09 422.55L136.148 422.013C127.23 416.942 119.889 406.897 119.742 399.583L152.959 418.503C153.105 425.817 146.007 427.621 137.09 422.55Z" fill="#257467"/>
<path d="M171.557 429.441C171.655 434.642 166.603 435.927 160.268 432.318C153.934 428.71 148.703 421.558 148.59 416.357V416.016L171.541 429.1V429.441H171.557Z" fill="#257467"/>
<path d="M121.935 410.489L116.526 407.401C109.964 403.663 104.539 396.251 104.442 390.871L133.646 407.515C133.76 412.911 128.514 414.244 121.951 410.489H121.935Z" fill="#257467"/>
<path d="M689.818 384.581V484.022L392.005 655.109V556.741L689.818 384.581Z" fill="#1C2743"/>
<path d="M94.1924 384.581V482.949L136.732 507.411V409.01L94.1924 384.565V384.581Z" fill="#13324B"/>
<path d="M349.465 532.165V630.533L392.005 654.979V556.611L349.465 532.165Z" fill="#13324B"/>
<path d="M392.152 556.66L349.465 532.133C349.465 541.869 347.971 544.697 353.558 546.241C355.313 546.729 357.392 541.511 359.292 541.722C364.035 542.226 362.005 549.297 366.179 551.133C368.697 552.239 373.992 548.809 375.438 549.947C376.201 550.564 377.647 558.285 381.561 556.708C386.986 554.53 392.005 564.624 392.005 564.624C392.005 564.624 391.81 559.114 392.152 556.627C392.152 556.465 396.391 560.821 398.697 560.869C408.914 561.097 405.016 555.213 411.887 549.557C415.216 546.777 417.474 552.271 421.372 550.402C423.468 549.378 425.092 543.673 430.241 540.325C435.975 536.619 441.189 539.301 443.674 538.65C449.456 537.155 447.345 531.613 453.079 527.533C457.334 524.51 459.998 528.102 466.04 525.436C472.651 522.527 475.331 513.051 479.619 510.759C488.569 505.98 487.221 513.733 495.083 507.329C499.874 503.461 501.482 500.422 506.566 496.976C509.734 494.83 512.462 500.405 520.958 496.358C530.719 491.693 531.743 483.745 535.609 481.616C539.361 479.552 547.238 482.461 550.455 479.6C554.808 475.732 551.803 470.466 556.952 467.784C563.108 464.566 570.076 466.305 576.817 464.566C579.919 463.769 579.805 452.83 582.664 451.449C587.992 448.881 598.111 450.604 602.529 446.638C604.17 445.159 603.861 440.364 607.971 437.422C615.345 432.139 624.961 436.723 628.469 434.903C632.79 432.676 630.759 422.631 635.356 421.071C639.482 419.689 649.016 425.313 652.492 422.745C654.36 421.379 654.246 414.407 656.894 411.237C660.305 407.157 668.134 410.896 670.473 409.108C674.258 406.231 674.176 399.599 678.01 396.771C679.618 395.585 689.916 401.387 689.916 401.387C689.916 401.387 690.062 387.279 689.753 384.5L540.936 470.547L392.119 556.595L392.152 556.643V556.66Z" fill="#257467"/>
<path d="M136.732 409.01L136.278 415.057C136.278 415.057 134.069 413.48 133.143 411.302C132.217 409.124 125.915 409.725 122.78 409.189C119.645 408.653 118.378 402.818 117.127 400.331C115.877 397.811 108.031 400.64 104.588 397.811C101.144 394.983 100.836 390.562 97.7008 394.057C94.566 397.535 94.1924 396.267 94.1924 396.267V384.613L136.732 409.059L136.7 409.027L136.732 409.01Z" fill="#257467"/>
<path d="M392.005 564.673C392.005 564.673 393.305 558.106 392.152 556.66L390.852 557.342L392.005 564.754" fill="#478F41"/>
<path d="M555.035 353.114C543.438 332.975 509.084 331.106 478.304 348.904C447.54 366.718 401.67 390.871 413.267 411.01C424.865 431.148 481.747 434.431 512.527 416.633C543.291 398.819 566.649 373.252 555.035 353.114Z" fill="#51A26B"/>
<path fill-rule="evenodd" clip-rule="evenodd" d="M337.803 275.599C316.314 278.574 296.481 263.555 293.509 242.051C290.536 220.548 305.545 200.702 327.034 197.727C330.282 197.272 333.482 197.24 336.601 197.565C341.003 198.036 345.437 195.094 346.72 190.852C351.041 176.63 363.255 165.496 378.93 163.318C398.031 160.669 415.817 172.241 421.632 189.942C421.908 190.754 422.721 191.275 423.581 191.161C445.071 188.186 464.903 203.205 467.876 224.709C470.848 246.212 455.84 266.058 434.351 269.033C415.249 271.682 397.463 260.109 391.648 242.409C391.372 241.596 390.56 241.076 389.699 241.19C386.45 241.645 383.25 241.678 380.132 241.352C375.73 240.881 371.296 243.823 370.013 248.065C365.692 262.287 353.477 273.421 337.803 275.599Z" fill="#257467"/>
<path fill-rule="evenodd" clip-rule="evenodd" d="M359.195 294.827C337.494 294.827 319.903 277.225 319.903 255.51C319.903 233.794 337.494 216.192 359.195 216.192C360.023 216.192 360.852 216.224 361.664 216.273C364.425 216.452 367.121 215.249 368.843 213.087C376.039 204.034 387.149 198.231 399.607 198.231C417.019 198.231 431.784 209.56 436.933 225.261C437.68 227.553 439.857 229.13 442.261 229.13C463.961 229.13 481.552 246.733 481.552 268.448C481.552 290.163 463.961 307.765 442.261 307.765C424.848 307.765 410.084 296.437 404.935 280.735C404.188 278.444 402.011 276.867 399.607 276.867C398.779 276.867 397.95 276.834 397.138 276.786C394.377 276.607 391.681 277.81 389.959 279.971C382.763 289.025 371.653 294.827 359.195 294.827Z" fill="#74C053"/>
<path d="M387.327 320.72C410.777 320.72 429.786 301.697 429.786 278.232C429.786 254.767 410.777 235.745 387.327 235.745C363.878 235.745 344.869 254.767 344.869 278.232C344.869 301.697 363.878 320.72 387.327 320.72Z" fill="#257467"/>
<path d="M328.886 286.262L417.961 337.721C421.015 339.493 421.015 343.898 417.961 345.669L245.592 444.476C244.179 445.289 242.425 445.289 241.012 444.476L151.936 393.017C148.882 391.245 148.882 386.84 151.936 385.068L324.305 286.262C325.718 285.449 327.472 285.449 328.886 286.262Z" fill="#51A26B"/>
<path d="M385.979 292.861L398.567 285.595V331.626L385.979 338.908V292.861Z" fill="#999898"/>
<path d="M385.979 292.861L398.567 285.595L347.402 256.403L334.798 263.685L385.979 292.861Z" fill="#F6F4E0"/>
<path d="M314.218 189.617L326.806 182.351L347.402 256.403L334.798 263.685L314.218 189.617Z" fill="#D9D9D8"/>
<path d="M316.362 252.649L385.979 292.861V338.908L316.362 298.68V252.649Z" fill="#B0B0B0"/>
<path d="M302.507 188.365L314.218 189.617L334.798 263.685L316.362 252.649L302.507 188.365Z" fill="#B0B0B0"/>
<path d="M304.732 191.128L315.03 192.591L322.535 219.524L312.22 218.077L304.732 191.128Z" fill="#CFBD9D"/>
<path d="M315.112 181.083L302.507 188.365L314.218 189.617L326.806 182.351L315.112 181.083Z" fill="#B0B0B0"/>
<path d="M233.053 350.204L210.215 337.006V351.829L233.053 365.028V350.204Z" fill="#CFBD9D"/>
<path d="M357.652 278.232L334.798 265.034L210.215 337.006L233.053 350.204L357.652 278.232Z" fill="#FDEFC1"/>
<path d="M233.053 350.204L357.652 278.232V293.056L233.053 365.028V350.204Z" fill="#C5B88D"/>
<path d="M258.505 364.914L235.668 351.716V366.539L258.505 379.737V364.914Z" fill="#CFBD9D"/>
<path d="M383.088 292.926L360.251 279.728L235.668 351.716L258.505 364.914L383.088 292.926Z" fill="#FDEFC1"/>
<path d="M258.505 364.914L383.088 292.926V307.749L258.505 379.737V364.914Z" fill="#C5B88D"/>
<path d="M331.208 250.78L206.625 322.751L199.138 295.819L323.72 223.831L331.208 250.78Z" fill="#E8D9A7"/>
<path d="M188.823 294.356L199.138 295.819L323.72 223.831L313.422 222.384L188.823 294.356Z" fill="#FDEFC1"/>
<path d="M322.535 219.524L197.936 291.512L190.448 264.563L315.03 192.591L322.535 219.524Z" fill="#E8D9A7"/>
<path d="M180.133 263.116L190.448 264.563L315.03 192.591L304.732 191.128L180.133 263.116Z" fill="#FDEFC1"/>
<path d="M248.792 372.114L261.396 364.849V410.879L248.792 418.161V372.114Z" fill="#999898"/>
<path d="M248.792 372.114L261.396 364.849L210.215 335.673L197.627 342.939L248.792 372.114Z" fill="#F6F4E0"/>
<path d="M177.031 268.886L189.619 261.605L210.215 335.673L197.627 342.939L177.031 268.886Z" fill="#D9D9D8"/>
<path d="M179.175 331.902L248.792 372.114V418.161L179.175 377.933V331.902Z" fill="#C2C2C2"/>
<path d="M165.336 267.619L177.031 268.886L197.627 342.939L179.175 331.902L165.336 267.619Z" fill="#C2C2C2"/>
<path d="M177.924 260.337L165.336 267.619L177.031 268.886L189.619 261.605L177.924 260.337Z" fill="#B0B0B0"/>
<path d="M589.437 41.0896L586.449 39.3342L534.553 69.3061L534.65 103.78L537.655 105.52L537.541 71.0453L589.437 41.0896Z" fill="#F0EFEF"/>
<path d="M589.437 41.0896L604.495 49.6553L589.535 75.5476L537.655 105.52L537.541 71.0453L589.437 41.0896Z" fill="#D4D4D4"/>
<path d="M545.793 351.943C553.427 356.527 553.151 363.841 545.208 368.278C537.265 372.699 524.645 372.569 517.01 368.002C509.393 363.418 509.653 356.104 517.612 351.667C525.554 347.23 538.175 347.343 545.793 351.943Z" fill="#4D727D"/>
<mask id="mask0_4635_7273" style="mask-type:luminance" maskUnits="userSpaceOnUse" x="511" y="359" width="41" height="23">
<path d="M511.407 369.514C511.407 365.905 511.472 363.63 511.472 360.021C511.472 362.882 513.323 365.775 517.027 367.986C524.661 372.569 537.265 372.699 545.224 368.262C549.318 365.987 551.364 362.947 551.364 359.891L551.299 369.384C551.299 372.423 549.253 375.479 545.159 377.754C537.217 382.192 524.58 382.062 516.962 377.478C513.258 375.251 511.423 372.374 511.423 369.514H511.407Z" fill="white"/>
</mask>
<g mask="url(#mask0_4635_7273)">
<path d="M511.407 369.514L511.472 360.021C511.472 362.882 513.323 365.775 517.027 367.986C524.661 372.569 537.265 372.699 545.224 368.262C549.318 365.987 551.364 362.947 551.364 359.891L551.299 369.384C551.299 372.423 549.253 375.479 545.159 377.754C537.217 382.192 524.58 382.062 516.962 377.478C513.258 375.251 511.423 372.374 511.423 369.514H511.407Z" fill="#32525F"/>
</g>
<path d="M541.732 352.642C547.271 355.974 547.076 361.273 541.31 364.459C535.544 367.677 526.399 367.596 520.876 364.264C515.354 360.948 515.549 355.633 521.299 352.415C527.049 349.196 536.21 349.31 541.732 352.626V352.642Z" fill="#B46127"/>
<path d="M541.7 344.792C547.222 348.124 547.044 353.439 541.277 356.657C535.511 359.859 526.366 359.778 520.844 356.446C515.321 353.097 515.516 347.815 521.266 344.58C527.016 341.378 536.161 341.46 541.7 344.792Z" fill="#4D727D"/>
<mask id="mask1_4635_7273" style="mask-type:luminance" maskUnits="userSpaceOnUse" x="516" y="350" width="30" height="17">
<path d="M516.848 358.494C516.848 355.877 516.848 353.276 516.832 350.659C516.832 352.74 518.18 354.82 520.86 356.446C526.383 359.778 535.527 359.843 541.294 356.657C544.25 354.983 545.744 352.788 545.744 350.578V358.412C545.777 360.623 544.282 362.833 541.31 364.459C535.544 367.677 526.399 367.596 520.876 364.264C518.196 362.638 516.864 360.558 516.848 358.494Z" fill="white"/>
</mask>
<g mask="url(#mask1_4635_7273)">
<path d="M516.848 358.494V350.659C516.848 352.74 518.18 354.82 520.86 356.446C526.383 359.778 535.527 359.843 541.294 356.657C544.25 354.983 545.744 352.788 545.744 350.578V358.412C545.777 360.623 544.282 362.833 541.31 364.459C535.544 367.677 526.399 367.596 520.876 364.264C518.196 362.638 516.864 360.558 516.848 358.494Z" fill="#32525F"/>
</g>
<mask id="mask2_4635_7273" style="mask-type:luminance" maskUnits="userSpaceOnUse" x="521" y="38" width="20" height="317">
<path d="M539.945 38.489L540.725 349.538C540.725 350.903 539.832 352.236 538.045 353.276C534.455 355.357 528.624 355.357 525.034 353.276C523.215 352.236 522.322 350.854 522.322 349.473L521.542 38.4402C521.542 39.8218 522.436 41.2034 524.255 42.2436C527.861 44.3078 533.676 44.3078 537.265 42.2273C539.036 41.1871 539.929 39.838 539.945 38.489Z" fill="white"/>
</mask>
<g mask="url(#mask2_4635_7273)">
<path d="M539.945 38.489L540.725 349.538C540.725 350.903 539.832 352.236 538.045 353.276C534.455 355.357 528.624 355.357 525.034 353.276C523.215 352.236 522.322 350.854 522.322 349.473L521.542 38.4402C521.542 39.8218 522.436 41.2034 524.255 42.2436C527.861 44.3078 533.676 44.3078 537.265 42.2273C539.036 41.1871 539.929 39.838 539.945 38.489Z" fill="#C2C2C2"/>
</g>
<path d="M537.217 34.7018C540.823 36.7986 540.855 40.1469 537.265 42.2436C533.676 44.3241 527.861 44.3241 524.255 42.2599C520.649 40.1631 520.633 36.7986 524.222 34.7018C527.812 32.6214 533.627 32.6214 537.233 34.7018H537.217Z" fill="#D68428"/>
<path d="M519.609 38.0176C519.609 39.5617 520.616 41.1221 522.614 42.3249C529.355 46.3883 541.212 43.5439 541.196 37.9526C541.001 29.3056 519.934 29.0293 519.609 38.0176Z" fill="#F0EFEF"/>
<path d="M541.196 37.9526C541.196 39.6105 540.092 41.2521 537.866 42.4874C533.562 44.893 526.724 44.8117 522.598 42.3249C520.6 41.1221 519.593 39.5617 519.593 38.0176C519.609 42.9588 519.593 42.845 519.674 43.4464C520.486 47.2498 524.921 48.8751 528.283 49.249C530.086 49.509 532.376 49.4278 534.894 48.7939C535.365 48.6801 537.818 47.9649 539.491 46.3558C541.131 44.7792 541.18 43.3326 541.212 42.715V37.9526H541.196Z" fill="#D4D4D4"/>
<path d="M522.614 104.187L470.735 134.175L455.791 160.067L458.796 161.806L473.739 135.914L525.619 105.926L522.614 104.187Z" fill="#F0EFEF"/>
<path d="M525.619 105.926L525.717 140.4L473.837 170.372L458.796 161.806L473.739 135.914L525.619 105.926Z" fill="#D4D4D4"/>
<path d="M569.458 160.522L535.154 140.839L532.051 142.643L565.918 162.278L581.267 188.203L584.369 186.382L569.458 160.522Z" fill="#F0EFEF"/>
<path d="M566.34 162.327L581.267 188.203L566.243 196.785L531.954 177.118L532.051 142.643L566.34 162.327Z" fill="#D4D4D4"/>
<path fill-rule="evenodd" clip-rule="evenodd" d="M360.088 381.899C349.368 380.014 346.639 372.228 346.639 366.36C358.107 366.36 361.29 375.007 361.566 380.534H361.599C361.875 375.007 365.058 366.36 376.526 366.36C376.526 372.228 373.781 380.014 363.077 381.899V396.284H360.088V381.899Z" fill="#257467"/>
<path d="M352.389 360.607C352.633 355.535 358.772 349.586 361.566 357.941C364.165 349.326 371.003 356.429 370.76 361.517C370.516 366.588 366.195 370.505 361.128 370.261C356.06 370.017 352.145 365.694 352.389 360.623V360.607Z" fill="#E25D4F"/>
<path d="M494.449 458.844C494.449 465.102 479.879 470.173 461.915 470.173C443.95 470.173 429.38 465.102 429.38 458.844C429.38 452.587 443.95 447.515 461.915 447.515C479.879 447.515 494.449 452.587 494.449 458.844Z" fill="#51A26B"/>
<path d="M506.664 348.059C498.689 351.537 488.342 354.349 473.268 349.115C447.946 340.322 445.493 369.188 459.673 380.209C473.853 391.229 481.39 386.092 483.388 382.143C491.136 385.524 504.536 383.833 501.336 371.269C510.205 371.513 516.621 343.719 506.648 348.075L506.664 348.059Z" fill="#E8EFF9"/>
<path d="M451.422 444.85V405.89L447.735 403.029L445.526 444.85L442.001 450.62C441.189 451.969 443.122 453.578 444.356 454.57C444.714 454.862 445.087 455.252 445.526 455.74C448.368 458.861 448.839 461.478 451.422 455.74C452.25 453.903 453.03 453.367 453.842 453.464C455.288 453.643 456.181 453.091 455.45 451.823L451.422 444.85Z" fill="#FEDB26"/>
<path d="M475.104 444.85V405.89L471.417 403.029L469.208 444.85L465.683 450.62C464.871 451.969 466.804 453.578 468.038 454.57C468.396 454.862 468.769 455.252 469.208 455.74C472.05 458.861 472.521 461.478 475.104 455.74C475.932 453.903 476.712 453.367 477.524 453.464C478.97 453.643 479.863 453.091 479.132 451.823L475.104 444.85Z" fill="#FEDB26"/>
<path d="M450.496 256.273C438.492 256.273 428.747 266.009 428.747 278.021L428.714 381.249C428.714 393.26 438.444 403.013 450.447 403.013C462.451 403.013 472.196 393.277 472.196 381.265L472.229 278.037C472.229 266.026 462.499 256.273 450.496 256.273Z" fill="#F7F9FD"/>
<path d="M445.136 260.987C446.159 260.093 449.391 258.305 450.886 257.525C453.306 252.844 456.733 244.229 450.999 247.139C443.836 250.78 443.853 262.109 445.136 260.987Z" fill="#F7F9FD"/>
<path d="M445.298 259.947C446.549 259.41 450.171 258.663 451.828 258.37C455.547 254.632 461.395 247.448 455.044 248.504C447.117 249.837 443.739 260.629 445.298 259.947Z" fill="#F7F9FD"/>
<path d="M428.747 412.749C409.125 399.713 419.586 365.109 428.747 353.829C438.671 352.333 466.43 351.569 472.586 351.618C478.304 351.667 490.6 358.559 498.559 363.922C499.631 364.637 501.092 364.767 502.343 364.507C504.747 364.004 509.198 363.158 516.816 359.875C518.797 359.03 521.055 360.379 521.055 362.541C520.909 392.464 503.318 410.619 497.73 414.407C483.42 424.143 448.384 425.784 428.747 412.749Z" fill="#F7F9FD"/>
<path d="M523.329 371.09C521.786 372.537 516.864 375.511 514.607 376.812C511.114 384.207 506.306 397.795 515.029 392.935C525.928 386.856 525.278 369.302 523.329 371.106V371.09Z" fill="#F7F9FD"/>
<path d="M500.67 360.509C492.711 363.971 482.397 366.767 467.356 361.549C442.098 352.788 439.646 381.541 453.793 392.529C467.941 403.5 475.461 398.38 477.443 394.463C485.174 397.828 498.542 396.154 495.359 383.622C504.195 383.866 510.611 356.169 500.67 360.509Z" fill="#E8EFF9"/>
<path d="M437.096 280.053C437.849 280.053 438.46 279.441 438.46 278.687C438.46 277.933 437.849 277.322 437.096 277.322C436.342 277.322 435.731 277.933 435.731 278.687C435.731 279.441 436.342 280.053 437.096 280.053Z" fill="#010101"/>
<path d="M459.413 286.928C460.167 286.928 460.778 286.317 460.778 285.563C460.778 284.809 460.167 284.197 459.413 284.197C458.66 284.197 458.049 284.809 458.049 285.563C458.049 286.317 458.66 286.928 459.413 286.928Z" fill="#010101"/>
<path d="M419.05 287.253C418.692 284.506 424.54 283.872 427.496 283.889C432.905 283.824 443.122 284.474 440.848 287.546C437.989 291.382 419.488 290.683 419.05 287.253Z" fill="#FFC233"/>
<path fill-rule="evenodd" clip-rule="evenodd" d="M222.349 422.989H219.36V408.604C208.64 406.718 205.911 398.933 205.911 393.065C217.378 393.065 220.562 401.712 220.838 407.239H220.871C221.147 401.712 224.33 393.065 235.798 393.065C235.798 398.933 233.069 406.718 222.349 408.604V422.989Z" fill="#257467"/>
<path d="M211.206 387.311C211.45 382.24 217.589 376.291 220.383 384.646C222.982 376.031 229.82 383.134 229.577 388.222C229.333 393.293 225.012 397.21 219.945 396.966C214.877 396.722 210.962 392.399 211.206 387.328V387.311Z" fill="#E25D4F"/>
<path fill-rule="evenodd" clip-rule="evenodd" d="M392.346 524.932H389.358V510.548C378.638 508.662 375.909 500.877 375.909 495.009C387.376 495.009 390.56 503.656 390.836 509.182H390.868C391.145 503.656 394.328 495.009 405.796 495.009C405.796 500.877 403.067 508.662 392.346 510.548V524.932Z" fill="#257467"/>
<path d="M381.204 488.833C381.448 483.761 387.587 477.813 390.381 486.167C392.98 477.552 399.818 484.655 399.575 489.743C399.331 494.814 395.01 498.731 389.943 498.487C384.875 498.244 380.96 493.92 381.204 488.849V488.833Z" fill="#E25D4F"/>
<path d="M552.225 77.9369C552.29 78.132 552.339 78.2945 552.371 78.457C552.404 78.6033 552.42 78.7821 552.404 78.9446C552.387 79.1072 552.339 79.3022 552.274 79.5135C552.209 79.7248 552.111 79.9686 551.998 80.2612C551.673 81.0089 551.218 81.6103 550.601 82.0654C550.471 82.1954 550.308 82.3742 550.113 82.5692C549.902 82.7805 549.659 83.0081 549.366 83.2844L549.87 84.2109C549.951 84.3409 550.048 84.4709 550.113 84.601C550.195 84.731 550.276 84.8773 550.357 85.0561C550.422 85.1698 550.471 85.2999 550.536 85.4462C550.601 85.5924 550.649 85.7225 550.666 85.8688C550.682 86.015 550.666 86.1451 550.584 86.2914C550.52 86.4376 550.373 86.5677 550.178 86.6814C549.967 86.8115 549.789 86.8602 549.659 86.8602C549.529 86.8602 549.415 86.7952 549.318 86.6977C549.22 86.6002 549.139 86.4539 549.041 86.2914C548.96 86.1288 548.846 85.9663 548.733 85.7875C548.668 85.6737 548.57 85.5274 548.473 85.3649C548.392 85.2186 548.278 85.0236 548.164 84.796C548.051 84.5685 547.888 84.3084 547.726 83.9996L547.677 83.9183C547.677 83.9183 547.612 83.7883 547.563 83.6908C547.515 83.5932 547.45 83.4957 547.385 83.3982C547.32 83.3007 547.271 83.2031 547.222 83.1219C547.173 83.0406 547.141 82.9918 547.141 82.9593C547.109 82.8943 547.06 82.7968 546.995 82.6343C546.93 82.4717 546.849 82.3092 546.784 82.1304C546.702 81.9516 546.621 81.7728 546.556 81.6103C546.491 81.4477 546.426 81.3177 546.394 81.2202C546.313 81.0576 546.248 80.9276 546.166 80.8138C546.085 80.7001 546.02 80.5863 545.939 80.4888C545.939 80.4725 545.907 80.4075 545.858 80.2937C545.809 80.1799 545.76 80.0499 545.712 79.9199C545.663 79.7736 545.614 79.6436 545.582 79.4973C545.549 79.351 545.517 79.221 545.517 79.1072C545.76 78.7984 546.101 78.522 546.524 78.262L546.654 78.1807C547.076 77.7581 547.498 77.433 547.921 77.1892C548.083 77.0917 548.554 76.8967 549.334 76.5716L550.243 76.4903C550.503 76.4903 550.714 76.4903 550.893 76.5228C551.072 76.5553 551.25 76.6366 551.397 76.7504C551.543 76.8642 551.689 77.0104 551.835 77.2055C551.965 77.4005 552.111 77.6443 552.258 77.9532L552.225 77.9369ZM550.731 79.0909C550.682 78.8796 550.617 78.7008 550.536 78.5546C550.406 78.2945 550.162 78.1157 549.821 78.0507C549.464 77.9694 549.009 78.1157 548.44 78.4408C548.181 78.6033 547.823 78.9121 547.368 79.3835C547.482 79.5623 547.596 79.7736 547.742 80.0174C547.872 80.2775 548.018 80.57 548.197 80.9114C548.197 80.9439 548.229 81.0414 548.327 81.2202C548.375 81.3014 548.424 81.4152 548.473 81.5452C548.538 81.6753 548.603 81.8053 548.684 81.9516C548.782 81.8866 548.879 81.7891 549.009 81.6915C549.123 81.5778 549.236 81.4802 549.334 81.3827C549.431 81.2852 549.545 81.1552 549.675 80.9926C550.406 80.3425 550.763 79.7086 550.747 79.0909H550.731Z" fill="#717070"/>
<path d="M561.792 76.4416C562.052 76.4416 562.214 76.5228 562.296 76.6854C562.344 76.7666 562.361 76.8804 562.344 77.0105C562.344 77.1405 562.296 77.2705 562.247 77.3843C562.198 77.5143 562.133 77.6281 562.052 77.7419C561.971 77.8557 561.89 77.9369 561.792 78.0019C561.695 78.0182 561.548 78.0344 561.402 78.0344C561.24 78.0344 561.077 78.0344 560.915 78.0019C560.753 77.9857 560.574 77.9369 560.411 77.8882C560.249 77.8394 560.103 77.7581 560.005 77.6769V78.0019C559.973 78.4895 559.794 79.0259 559.486 79.6111C558.966 80.0337 558.657 80.2775 558.576 80.3262C558.365 80.4563 558.089 80.5863 557.764 80.7001H556.562C555.993 80.5863 555.571 80.245 555.295 79.6598C555.197 79.4485 555.116 79.2047 555.084 78.9121C555.035 78.6196 555.019 78.2945 555.035 77.9532C555.051 77.6118 555.1 77.2543 555.197 76.8967C555.279 76.5228 555.409 76.1653 555.587 75.8077C555.863 75.4988 556.14 75.2225 556.399 74.9787C556.659 74.7187 556.87 74.5399 557.017 74.4261C557.13 74.0848 557.342 73.841 557.618 73.6622C557.78 73.5646 557.975 73.5484 558.17 73.6134C558.365 73.6784 558.56 73.7922 558.771 73.9547C558.966 74.1173 559.161 74.3123 559.339 74.5399C559.518 74.7674 559.68 74.995 559.81 75.2225L560.395 75.8727C560.574 76.084 560.785 76.2303 561.029 76.3115C561.256 76.3928 561.532 76.4416 561.825 76.4416H561.792ZM558.446 76.3278C558.446 76.3278 558.186 76.0677 557.748 75.5476C557.699 75.5801 557.601 75.6289 557.488 75.6939C557.374 75.7589 557.26 75.8727 557.13 76.019C557 76.1653 556.887 76.3603 556.773 76.5879C556.659 76.8317 556.594 77.1242 556.562 77.4818C556.513 78.0019 556.562 78.457 556.757 78.8471C557.098 79.0584 557.52 79.1397 558.024 79.0747C558.137 78.9772 558.219 78.8796 558.284 78.7821C558.349 78.6846 558.397 78.5871 558.43 78.4895C558.462 78.3758 558.495 78.262 558.495 78.1157C558.495 77.9694 558.511 77.8069 558.511 77.5956C558.544 77.2868 558.56 77.0267 558.527 76.8154C558.511 76.6041 558.462 76.4416 558.414 76.3278H558.446Z" fill="#717070"/>
<path d="M567.558 68.3797C567.64 68.4772 567.704 68.591 567.769 68.721C567.818 68.8348 567.883 68.9486 567.932 69.0624C568.143 69.5175 568.289 69.9563 568.354 70.3952C568.435 70.6715 568.517 70.9478 568.614 71.2241C568.712 71.5004 568.825 71.793 568.939 72.0856C568.939 72.1018 569.02 72.1993 569.134 72.3781C569.248 72.5569 569.41 72.8332 569.589 73.2071C569.67 73.3696 569.654 73.5484 569.54 73.7272C569.426 73.906 569.28 74.0523 569.069 74.166C568.825 74.3123 568.63 74.3773 568.484 74.3448C568.338 74.3123 568.175 74.1173 567.981 73.7759C567.867 74.0523 567.737 74.2798 567.607 74.4749C567.477 74.6699 567.331 74.8324 567.185 74.9625C567.039 75.0925 566.909 75.2225 566.762 75.3038C566.632 75.4013 566.502 75.4826 566.373 75.5476C565.739 75.9377 565.171 76.0515 564.683 75.9052C564.196 75.7589 563.806 75.4013 563.53 74.7999C563.498 74.7349 563.465 74.6537 563.433 74.5886C563.4 74.5074 563.368 74.4261 563.319 74.3123C563.303 74.3123 563.27 74.2636 563.238 74.1823C563.189 74.0685 563.14 73.9547 563.092 73.841C563.043 73.7272 562.994 73.5647 562.945 73.3859C562.897 73.1908 562.848 72.9633 562.799 72.6544C562.75 72.3619 562.702 71.9718 562.653 71.5004C562.718 71.2566 562.88 71.0616 563.124 70.9153C563.319 70.8015 563.498 70.7527 563.676 70.7527C563.855 70.7527 564.001 70.8503 564.082 71.0453C564.099 71.0941 564.131 71.2078 564.18 71.3704C564.212 71.5329 564.261 71.728 564.293 71.923C564.326 72.1343 564.375 72.3294 564.44 72.5244C564.488 72.7194 564.537 72.8657 564.586 72.9633L564.618 73.0445C564.651 73.1746 564.683 73.2883 564.716 73.3859C564.748 73.4996 564.797 73.5972 564.829 73.6784C564.959 73.9385 565.106 74.1173 565.268 74.2311C565.43 74.3448 565.658 74.3286 565.934 74.1498C566.129 74.036 566.308 73.8735 566.438 73.6784C566.567 73.4834 566.697 73.2883 566.779 73.077C566.876 72.8657 566.941 72.6544 566.974 72.4431C567.022 72.2318 567.039 72.053 567.022 71.8905C566.909 71.4842 566.779 70.9478 566.632 70.2814L566.567 70.1351C566.486 69.9726 566.421 69.7938 566.356 69.6312C566.291 69.4687 566.259 69.3062 566.259 69.1436C566.259 68.9973 566.275 68.8511 566.34 68.7048C566.405 68.5747 566.519 68.4447 566.697 68.3472C567.022 68.1521 567.298 68.1521 567.51 68.3472L567.558 68.3797Z" fill="#717070"/>
<path d="M571.424 62.8696C571.522 63.1297 571.587 63.4385 571.635 63.8124C571.684 64.1862 571.733 64.4788 571.781 64.7063L571.863 64.8851C571.928 65.0314 571.993 65.1777 572.041 65.3565C572.09 65.5353 572.139 65.6978 572.187 65.8441C572.236 66.0066 572.269 66.1366 572.301 66.2667C572.317 66.3967 572.35 66.478 572.366 66.5105C572.366 66.5592 572.431 66.6893 572.512 66.8681C572.61 67.0631 572.724 67.3069 572.87 67.6157L572.951 67.7945C573.048 67.9896 573.113 68.1684 573.162 68.3309C573.211 68.4934 573.243 68.6397 573.276 68.786L573.958 69.81C574.055 69.8913 574.283 69.9563 574.64 70.0213C574.673 70.2326 574.608 70.4764 574.445 70.769C574.283 71.0453 574.072 71.2728 573.828 71.4191C573.487 71.6142 573.178 71.6304 572.87 71.4516C572.561 71.2728 572.252 70.8502 571.928 70.2001C571.879 70.0863 571.846 69.9888 571.814 69.9075C571.798 69.8263 571.749 69.7125 571.7 69.5987C571.587 69.3549 571.408 69.0786 571.164 68.7698C571.164 68.6235 571.148 68.4609 571.083 68.2821C571.034 68.1034 570.969 67.9246 570.904 67.762C570.839 67.5995 570.791 67.4695 570.726 67.3557C570.677 67.2419 570.661 67.2094 570.661 67.2257C570.661 67.2257 570.661 67.1606 570.596 66.9981C570.547 66.8356 570.498 66.6405 570.433 66.413C570.368 66.1854 570.303 65.9579 570.222 65.7303C570.141 65.5027 570.076 65.324 570.011 65.1939L569.946 65.0802L569.637 63.6661C569.67 63.3572 569.881 63.0972 570.222 62.8859C570.612 62.6583 570.986 62.6421 571.359 62.8859L571.424 62.8696Z" fill="#717070"/>
<path d="M583.119 65.0639C582.924 65.6003 582.648 66.1042 582.323 66.5918C581.982 67.0794 581.592 67.4695 581.137 67.7458C580.731 67.9896 580.179 68.2497 579.481 68.526C579.204 68.526 578.896 68.526 578.587 68.4609C578.279 68.4122 577.986 68.3309 577.694 68.2171C577.401 68.1034 577.142 67.9408 576.914 67.762C576.671 67.567 576.492 67.3394 576.362 67.0631C576.329 66.9819 576.281 66.8681 576.232 66.7381C576.183 66.5918 576.135 66.4617 576.086 66.3154C576.037 66.1692 575.972 65.9904 575.907 65.7791C575.972 65.324 576.053 64.8689 576.151 64.4138C576.248 63.9587 576.476 63.471 576.8 62.9509C577.45 62.382 577.937 61.9919 578.262 61.7969C578.425 61.6994 578.571 61.6181 578.701 61.5531C578.831 61.4881 578.961 61.4556 579.107 61.4231C579.237 61.3906 579.399 61.3906 579.545 61.4231C579.708 61.4393 579.887 61.4718 580.114 61.5206C580.374 61.5856 580.569 61.6019 580.699 61.6019C580.829 61.6019 580.91 61.6181 580.942 61.6669C581.381 62.5771 581.365 63.3735 580.894 64.0887C580.666 64.3487 580.341 64.6576 579.952 65.0314C579.562 65.4052 579.009 65.8603 578.279 66.413C578.62 66.6893 578.961 66.8518 579.302 66.8843C579.643 66.9168 579.984 66.8356 580.309 66.6405C580.78 66.348 581.251 65.7466 581.738 64.8038C581.803 64.6413 581.917 64.5275 582.079 64.4138C582.258 64.3 582.437 64.2675 582.632 64.3C582.827 64.3325 582.973 64.4463 583.054 64.6251C583.119 64.7551 583.135 64.9014 583.119 65.0802V65.0639ZM579.708 63.0322C579.351 62.8534 579.026 62.8534 578.75 63.0322C578.62 63.1135 578.506 63.1947 578.376 63.3248C578.246 63.4385 578.116 63.5686 578.002 63.7148C577.873 63.8611 577.775 64.0074 577.678 64.17C577.58 64.3325 577.531 64.4788 577.499 64.6413L577.548 65.1777C577.905 64.9176 578.23 64.6901 578.506 64.495C578.782 64.3 579.009 64.1212 579.204 63.9586C579.399 63.7961 579.529 63.6336 579.627 63.4873C579.708 63.341 579.74 63.1947 579.708 63.0322Z" fill="#717070"/>
<path d="M589.259 56.4332C589.356 56.6607 589.421 56.8232 589.454 56.9045C589.486 57.002 589.502 57.1158 589.502 57.2458C589.502 57.3759 589.502 57.5709 589.486 57.8472C589.486 58.1073 589.486 58.5136 589.486 59.0825C589.632 59.6026 589.632 60.1878 589.486 60.8542C589.551 61.4393 589.519 61.9107 589.405 62.252C589.405 62.3658 589.405 62.5446 589.372 62.8046C589.34 63.0647 589.308 63.341 589.275 63.6336C589.243 63.9261 589.21 64.2187 589.178 64.495C589.145 64.7713 589.129 64.9826 589.129 65.1289C589.129 65.1939 589.129 65.3077 589.113 65.4865C589.096 65.649 589.064 65.8441 589.031 66.0229C588.983 66.2179 588.934 66.3967 588.836 66.5918C588.755 66.7868 588.642 66.9168 588.512 66.9981C588.317 67.1119 588.106 67.1769 587.878 67.1606C587.651 67.1606 587.505 67.0631 587.423 66.9168C587.391 66.8356 587.375 66.7218 587.391 66.543C587.407 66.3805 587.44 66.1854 587.472 65.9741C587.505 65.7628 587.553 65.5515 587.602 65.324C587.651 65.0964 587.683 64.9014 587.716 64.7063C587.716 64.6088 587.716 64.4463 587.716 64.235C587.716 64.0237 587.748 63.7961 587.764 63.5686C587.781 63.3248 587.797 63.0972 587.813 62.8859C587.813 62.6746 587.813 62.4958 587.813 62.3983C587.764 62.3983 587.683 62.3983 587.553 62.3495C587.423 62.317 587.277 62.2845 587.131 62.252C586.985 62.2195 586.822 62.2032 586.676 62.1707C586.53 62.1545 586.4 62.1382 586.286 62.1707C586.091 62.0895 585.929 62.0245 585.799 61.9919C585.669 61.9594 585.555 61.9269 585.458 61.9107C585.361 61.9107 585.263 61.8782 585.149 61.8619C585.036 61.8619 584.922 61.8132 584.776 61.7644C584.63 61.7156 584.451 61.6344 584.223 61.5531C583.996 61.4556 583.72 61.3255 583.395 61.1467C583.379 61.1305 583.346 61.0817 583.314 61.0167C583.216 60.8217 583.216 60.5941 583.298 60.3341C583.379 60.074 583.509 59.8952 583.687 59.7977C583.817 59.7164 583.98 59.6839 584.175 59.7002C584.386 59.7002 584.646 59.7814 584.971 59.9277C585.328 60.0903 585.588 60.2203 585.767 60.2853C585.945 60.3503 586.108 60.3991 586.221 60.4316C586.351 60.4641 586.465 60.4966 586.595 60.5129C586.725 60.5291 586.92 60.5616 587.18 60.6266C587.342 60.6104 587.586 60.6266 587.911 60.7404L587.797 58.9525C587.797 58.6274 587.797 58.2861 587.797 57.9285C587.797 57.5872 587.748 57.2783 587.667 57.002C587.829 56.7095 588.041 56.4819 588.284 56.3356C588.69 56.0918 589.015 56.1243 589.243 56.4332H589.259Z" fill="#717070"/>
<path d="M488.244 148.251C488.244 148.251 488.309 148.381 488.358 148.462C488.407 148.543 488.456 148.641 488.504 148.738C488.553 148.836 488.602 148.917 488.65 148.998C488.699 149.08 488.732 149.145 488.748 149.177C488.927 149.616 488.797 149.957 488.374 150.201C488.017 150.396 487.725 150.429 487.497 150.299L486.896 149.291L486.847 149.161C486.847 149.161 486.782 148.998 486.718 148.901C486.669 148.803 486.604 148.69 486.539 148.592C486.474 148.495 486.425 148.397 486.376 148.316C486.328 148.235 486.295 148.17 486.279 148.121C486.263 148.039 486.246 147.974 486.214 147.909C486.198 147.844 486.165 147.763 486.133 147.698C486.084 147.584 486.035 147.487 485.987 147.389C485.938 147.292 485.873 147.211 485.808 147.129C485.727 147.194 485.548 147.341 485.288 147.536C485.012 147.731 484.671 147.958 484.249 148.186C484.054 148.3 483.891 148.381 483.729 148.462C483.566 148.543 483.42 148.608 483.274 148.657C483.112 148.657 482.673 148.885 481.975 149.291C482.056 149.535 482.121 149.762 482.202 149.957C482.267 150.169 482.348 150.348 482.413 150.51C482.559 150.851 482.689 151.079 482.819 151.225C483.063 151.697 483.258 152.054 483.388 152.282C483.518 152.526 483.615 152.688 483.664 152.802C483.713 152.899 483.745 152.964 483.761 152.997C483.761 153.013 483.778 153.046 483.794 153.078C483.908 153.371 483.761 153.647 483.323 153.891C483.177 153.972 483.03 154.021 482.884 154.037C482.754 154.037 482.608 154.005 482.478 153.907C482.348 153.81 482.202 153.663 482.056 153.436C481.91 153.224 481.763 152.932 481.601 152.574C481.422 152.363 481.26 152.038 481.081 151.632C481.033 151.502 480.984 151.372 480.935 151.258C480.886 151.144 480.854 151.046 480.821 150.965C480.789 150.884 480.756 150.819 480.724 150.77C480.691 150.721 480.675 150.673 480.659 150.624C480.659 150.64 480.643 150.575 480.578 150.429C480.513 150.283 480.448 150.087 480.383 149.876C480.318 149.665 480.237 149.437 480.172 149.226C480.107 148.998 480.074 148.836 480.074 148.706C480.074 148.69 480.058 148.657 480.042 148.641C480.025 148.625 480.009 148.592 479.993 148.56C479.896 148.332 479.831 148.137 479.782 147.942C479.733 147.763 479.684 147.584 479.636 147.406C479.587 147.227 479.554 147.032 479.522 146.837C479.489 146.642 479.424 146.414 479.36 146.138C479.262 145.764 479.23 145.471 479.23 145.26C479.23 145.049 479.376 144.87 479.652 144.724C479.798 144.642 479.96 144.594 480.172 144.61C480.367 144.61 480.513 144.691 480.578 144.87C480.61 144.968 480.659 145.081 480.724 145.228C480.789 145.374 480.854 145.569 480.919 145.813C481 146.057 481.081 146.349 481.179 146.69C481.276 147.032 481.406 147.438 481.536 147.926C481.698 147.893 481.91 147.812 482.153 147.666C482.234 147.617 482.316 147.568 482.364 147.536C482.429 147.503 482.478 147.454 482.527 147.422C482.673 147.341 482.787 147.292 482.868 147.276C482.933 147.276 483.047 147.227 483.193 147.146C483.485 146.983 483.713 146.837 483.859 146.739C484.005 146.642 484.086 146.593 484.086 146.593L484.33 146.447C484.557 146.317 484.752 146.203 484.947 146.073C485.126 145.943 485.207 145.829 485.158 145.715C485.045 145.439 484.833 145.098 484.541 144.675L484.427 144.399C484.362 144.252 484.297 144.122 484.232 143.992C484.167 143.862 484.086 143.749 484.005 143.651C483.826 143.245 484.021 142.887 484.573 142.578C484.833 142.432 485.061 142.448 485.272 142.627C485.483 142.806 485.662 143.05 485.84 143.342C486.019 143.651 486.182 143.96 486.328 144.301C486.474 144.642 486.62 144.886 486.783 145.049C486.896 145.309 487.026 145.618 487.189 145.975C487.351 146.333 487.562 146.723 487.806 147.178C487.806 147.243 487.838 147.292 487.871 147.373C487.903 147.438 487.936 147.519 487.968 147.601C488.001 147.698 488.049 147.796 488.098 147.893C488.147 148.007 488.196 148.105 488.261 148.235L488.244 148.251Z" fill="#717070"/>
<path d="M495.911 145.39C495.797 145.569 495.602 145.78 495.31 146.057C495.018 146.317 494.725 146.593 494.4 146.837L493.669 147.097C493.556 147.129 493.361 147.146 493.085 147.162C492.809 147.178 492.516 147.146 492.191 147.048C491.867 146.95 491.542 146.772 491.217 146.512C490.892 146.252 490.632 145.861 490.405 145.341C490.323 145.163 490.291 144.919 490.275 144.61C490.275 144.301 490.307 143.992 490.405 143.667C490.502 143.342 490.665 143.017 490.892 142.708C491.119 142.399 491.412 142.139 491.785 141.928C492.549 141.505 493.328 141.343 494.124 141.44C494.936 141.814 495.505 142.399 495.83 143.212C496.073 143.814 496.09 144.529 495.895 145.39H495.911ZM494.222 143.683C494.011 143.326 493.734 143.082 493.426 142.985C493.117 142.871 492.792 142.92 492.468 143.115C492.24 143.245 492.078 143.456 491.964 143.765C491.85 144.074 491.867 144.415 492.029 144.789C492.094 144.935 492.175 145.081 492.289 145.228C492.403 145.374 492.532 145.488 492.695 145.569C492.857 145.65 493.02 145.683 493.215 145.683C493.41 145.683 493.605 145.618 493.832 145.488C494.189 145.293 494.384 145.049 494.449 144.772C494.498 144.496 494.465 144.22 494.352 143.927C494.352 143.895 494.319 143.846 494.303 143.814C494.287 143.781 494.27 143.732 494.238 143.683H494.222Z" fill="#717070"/>
<path d="M508.304 137.881C508.353 138.011 508.304 138.173 508.191 138.352C508.061 138.531 507.898 138.677 507.703 138.775C507.476 138.905 507.281 138.921 507.119 138.856C506.956 138.791 506.81 138.661 506.696 138.466C506.566 138.287 506.453 138.06 506.339 137.816C506.225 137.572 506.128 137.328 506.03 137.101C505.982 137.036 505.917 136.954 505.819 136.841C505.738 136.727 505.64 136.581 505.527 136.386C505.104 136.256 504.666 136.304 504.244 136.532C504.081 136.613 503.935 136.727 503.789 136.841C503.643 136.954 503.513 137.084 503.415 137.247C503.318 137.41 503.236 137.605 503.204 137.848C503.155 138.076 503.172 138.368 503.204 138.694C503.236 138.742 503.269 138.824 503.334 138.954C503.383 139.067 503.431 139.197 503.464 139.376C503.513 139.539 503.561 139.734 503.626 139.945L503.659 140.026C503.659 140.026 503.708 140.173 503.773 140.319C503.837 140.481 503.87 140.644 503.902 140.839C503.919 141.034 503.902 141.229 503.837 141.424C503.773 141.619 503.626 141.782 503.399 141.912C503.204 142.026 502.993 142.074 502.798 142.058C502.603 142.042 502.473 141.961 502.408 141.798C502.408 141.782 502.376 141.701 502.343 141.554C502.311 141.408 502.278 141.245 502.229 141.067C502.197 140.888 502.148 140.709 502.099 140.53C502.051 140.351 502.002 140.221 501.97 140.108C501.905 139.929 501.823 139.766 501.71 139.62L501.628 139.425C501.417 138.905 501.109 138.482 500.703 138.157C500.491 138.125 500.183 138.19 499.809 138.352C499.744 138.417 499.679 138.482 499.598 138.58C499.517 138.677 499.452 138.824 499.403 139.002C499.354 139.181 499.338 139.409 499.354 139.701C499.354 139.978 499.436 140.319 499.566 140.742L499.761 141.392C499.955 141.652 500.085 141.912 500.183 142.123C500.28 142.383 500.329 142.627 500.297 142.838C500.264 143.05 500.085 143.245 499.761 143.423C499.598 143.521 499.452 143.57 499.322 143.602C499.208 143.618 499.078 143.602 498.981 143.505C498.867 143.407 498.753 143.245 498.624 143.017C498.494 142.773 498.364 142.448 498.185 142.042C498.055 141.701 497.941 141.375 497.86 141.018C497.779 140.677 497.681 140.221 497.552 139.669C497.454 139.523 497.34 139.376 497.21 139.262C497.08 139.149 497.015 139.051 496.983 138.97C496.918 138.791 496.934 138.596 497.048 138.368C497.162 138.141 497.324 137.962 497.552 137.848C497.714 137.751 497.893 137.718 498.055 137.735L498.477 137.913C498.575 137.735 498.656 137.588 498.737 137.475C498.818 137.361 498.883 137.263 498.948 137.198C499.013 137.117 499.095 137.068 499.16 137.019C499.241 136.971 499.322 136.922 499.419 136.857C499.566 136.776 499.679 136.711 499.761 136.662C499.842 136.613 499.939 136.581 500.037 136.564C500.134 136.548 500.264 136.532 500.41 136.532C500.556 136.532 500.768 136.532 501.027 136.548C501.19 136.548 501.482 136.711 501.888 137.036L501.953 136.873C502.018 136.759 502.116 136.613 502.246 136.451C502.376 136.288 502.522 136.142 502.684 135.979C502.847 135.817 503.025 135.67 503.204 135.524C503.383 135.378 503.561 135.264 503.724 135.183C504.097 134.971 504.438 134.825 504.731 134.744C505.023 134.663 505.299 134.63 505.543 134.646C505.787 134.663 506.03 134.728 506.241 134.858C506.469 134.971 506.696 135.118 506.94 135.297L506.989 135.41C506.989 135.41 507.086 135.638 507.2 135.833C507.313 136.028 507.411 136.239 507.525 136.434C507.638 136.629 507.736 136.808 507.817 136.954C507.898 137.101 507.947 137.166 507.931 137.133C507.931 137.133 507.947 137.182 507.979 137.231C508.012 137.279 508.044 137.345 508.077 137.426C508.109 137.491 508.142 137.572 508.191 137.637C508.223 137.702 508.256 137.767 508.272 137.8L508.304 137.897V137.881Z" fill="#717070"/>
<path d="M516.864 133.492C516.621 134.012 516.312 134.516 515.955 135.004C515.581 135.475 515.175 135.849 514.704 136.109C514.282 136.337 513.713 136.581 513.015 136.824C512.739 136.824 512.446 136.776 512.138 136.727C511.829 136.662 511.553 136.564 511.277 136.434C511.001 136.304 510.757 136.142 510.546 135.93C510.318 135.719 510.156 135.475 510.042 135.199C510.01 135.118 509.977 135.004 509.929 134.858C509.88 134.711 509.847 134.565 509.815 134.419C509.782 134.273 509.734 134.094 509.669 133.882C509.766 133.427 509.88 132.972 510.01 132.517C510.14 132.062 510.383 131.574 510.757 131.071C511.439 130.518 511.959 130.16 512.284 129.982C512.463 129.884 512.609 129.819 512.739 129.754C512.869 129.705 513.015 129.656 513.145 129.64C513.291 129.624 513.437 129.624 513.583 129.64C513.746 129.673 513.924 129.705 514.152 129.754C514.412 129.819 514.59 129.868 514.736 129.868C514.866 129.868 514.948 129.9 514.964 129.949C515.337 130.875 515.256 131.688 514.736 132.387C514.493 132.631 514.152 132.94 513.729 133.297C513.307 133.655 512.722 134.094 511.975 134.614C512.284 134.906 512.609 135.085 512.95 135.134C513.291 135.183 513.616 135.118 513.957 134.939C514.444 134.663 514.964 134.077 515.5 133.151C515.581 133.005 515.711 132.875 515.873 132.777C516.052 132.68 516.247 132.647 516.442 132.696C516.637 132.745 516.767 132.858 516.832 133.037C516.881 133.167 516.897 133.33 516.864 133.492ZM513.648 131.298C513.307 131.103 512.982 131.087 512.69 131.249C512.56 131.314 512.43 131.412 512.3 131.526C512.17 131.639 512.024 131.769 511.894 131.899C511.764 132.046 511.65 132.192 511.553 132.338C511.455 132.485 511.39 132.647 511.358 132.793V133.346C511.748 133.102 512.073 132.891 512.365 132.712C512.657 132.533 512.901 132.355 513.096 132.192C513.291 132.03 513.453 131.883 513.551 131.737C513.648 131.591 513.681 131.444 513.664 131.282L513.648 131.298Z" fill="#717070"/>
<path d="M543.633 166.845C543.21 167.528 542.853 168.129 542.544 168.649C542.236 169.153 541.911 169.527 541.57 169.771C541.212 170.015 540.871 170.193 540.546 170.291C540.222 170.388 539.897 170.437 539.604 170.437C539.312 170.437 539.036 170.405 538.776 170.323C538.516 170.242 538.289 170.161 538.077 170.047C537.753 169.885 537.477 169.69 537.249 169.495C537.022 169.299 536.859 169.056 536.713 168.779C536.583 168.503 536.469 168.178 536.421 167.804C536.356 167.43 536.34 166.975 536.34 166.439C536.486 165.577 536.664 164.862 536.876 164.293C537.087 163.708 537.314 163.172 537.541 162.635C537.623 162.457 537.72 162.262 537.801 162.018C537.899 161.79 538.012 161.579 538.142 161.4C538.272 161.221 538.419 161.075 538.597 160.994C538.776 160.913 538.971 160.929 539.198 161.043C539.621 161.27 539.799 161.628 539.734 162.132C539.621 162.31 539.458 162.619 539.247 163.074C539.182 163.221 539.117 163.367 539.036 163.529C538.971 163.692 538.89 163.871 538.825 164.049C538.63 164.521 538.484 164.862 538.386 165.057C538.305 165.252 538.24 165.399 538.207 165.496C538.175 165.594 538.159 165.675 538.142 165.772C538.142 165.854 538.094 166.049 538.045 166.309C538.013 166.683 537.996 166.975 537.996 167.186C537.996 167.398 538.013 167.577 538.061 167.723C538.11 167.869 538.175 167.999 538.305 168.113C538.419 168.227 538.565 168.373 538.776 168.536C539.117 168.633 539.442 168.649 539.718 168.617C539.994 168.584 540.254 168.487 540.481 168.324C540.709 168.162 540.92 167.95 541.115 167.674C541.31 167.398 541.505 167.073 541.683 166.715C541.813 166.439 541.927 166.179 542.057 165.935C542.187 165.691 542.317 165.464 542.431 165.269C542.512 165.057 542.593 164.862 542.658 164.7C542.739 164.537 542.788 164.391 542.853 164.277C542.902 164.147 542.95 164.033 542.983 163.936L542.902 164.115C543.08 163.724 543.275 163.399 543.503 163.139C543.779 163.139 544.039 163.188 544.25 163.302C544.445 163.399 544.575 163.529 544.656 163.659C544.737 163.789 544.77 163.936 544.77 164.082C544.77 164.228 544.737 164.391 544.688 164.537C544.623 164.7 544.575 164.846 544.51 164.992C544.477 165.057 544.428 165.138 544.363 165.252C544.299 165.366 544.234 165.496 544.169 165.626C544.104 165.772 544.039 165.902 543.974 166.016C543.909 166.13 543.86 166.227 543.827 166.293C543.795 166.374 543.762 166.455 543.73 166.52C543.698 166.585 543.681 166.666 543.665 166.748L543.633 166.845Z" fill="#717070"/>
<path d="M551.786 174.858C551.689 174.972 551.543 175.07 551.348 175.183C551.137 175.297 550.909 175.395 550.633 175.476C550.357 175.557 550.097 175.622 549.805 175.655C549.529 175.687 549.269 175.687 549.041 175.655C548.359 175.606 547.661 175.395 546.946 175.021C546.719 174.907 546.524 174.793 546.361 174.696C546.199 174.598 546.036 174.484 545.907 174.338C545.76 174.208 545.647 174.029 545.533 173.834C545.419 173.639 545.306 173.363 545.208 173.038C545.078 172.697 544.997 172.371 544.981 172.079C544.948 171.786 544.948 171.51 544.981 171.266C545.013 171.022 545.062 170.795 545.127 170.6C545.192 170.388 545.257 170.21 545.338 170.063C545.5 169.722 545.728 169.332 546.02 168.909C546.313 168.487 546.816 168.032 547.498 167.544C547.758 167.365 547.953 167.219 548.099 167.121C548.246 167.008 548.327 166.943 548.359 166.894L549.642 166.829C550.081 166.813 550.487 166.829 550.861 166.861C551.234 166.91 551.608 167.024 551.998 167.219C552.111 167.268 552.274 167.365 552.485 167.479C552.712 167.593 552.907 167.723 553.102 167.885C553.297 168.048 553.443 168.227 553.557 168.438C553.671 168.649 553.671 168.861 553.557 169.088C553.378 169.478 553.037 169.576 552.534 169.397C552.534 169.397 552.517 169.397 552.436 169.332C552.371 169.283 552.257 169.218 552.144 169.137C552.014 169.056 551.868 168.974 551.721 168.877C551.559 168.779 551.397 168.698 551.234 168.601C550.942 168.454 550.633 168.373 550.276 168.373C549.919 168.373 549.447 168.454 548.863 168.601C548.44 168.926 548.132 169.186 547.921 169.381C547.709 169.576 547.58 169.706 547.547 169.803C547.336 169.95 547.141 170.226 546.946 170.632C546.605 171.38 546.508 171.998 546.637 172.485C546.767 172.957 547.092 173.33 547.58 173.59C547.904 173.753 548.424 173.932 549.171 174.111C549.675 174.094 550.195 173.899 550.714 173.558C550.991 173.477 551.218 173.493 551.413 173.59C551.624 173.704 551.77 173.867 551.868 174.111C551.965 174.354 551.965 174.566 551.868 174.777C551.868 174.793 551.851 174.809 551.835 174.826C551.835 174.826 551.819 174.858 551.803 174.875L551.786 174.858Z" fill="#717070"/>
<path d="M558.82 178.71C559.112 178.938 559.161 179.263 558.982 179.669C558.885 179.881 558.755 180.043 558.592 180.108C558.43 180.173 558.251 180.157 558.072 180.076C558.007 180.043 557.91 179.994 557.764 179.897C557.618 179.799 557.455 179.702 557.293 179.588C557.13 179.474 556.952 179.377 556.805 179.279C556.643 179.182 556.529 179.117 556.464 179.084C556.399 179.052 556.334 179.019 556.286 178.987C556.221 178.954 556.172 178.938 556.107 178.922C555.928 178.808 555.717 178.678 555.49 178.515C555.262 178.353 555.035 178.19 554.824 178.011C554.613 177.849 554.418 177.686 554.255 177.54C554.093 177.394 554.012 177.296 553.996 177.231C554.028 176.857 554.158 176.419 554.385 175.882C554.418 175.801 554.467 175.703 554.499 175.622C554.532 175.525 554.58 175.443 554.645 175.362L555.246 174.289C555.246 174.289 555.344 174.127 555.376 174.062C555.409 173.981 555.441 173.916 555.474 173.851C555.506 173.769 555.539 173.688 555.571 173.639C555.604 173.574 555.604 173.525 555.62 173.46C555.88 173.103 556.075 172.794 556.221 172.55C556.367 172.306 556.481 172.095 556.546 171.949L556.594 171.819C556.659 171.673 556.935 171.234 557.407 170.519C557.715 170.275 558.04 170.226 558.381 170.405C558.592 170.518 558.738 170.681 558.803 170.909C558.885 171.136 558.852 171.38 558.738 171.64C558.625 171.77 558.511 171.933 558.365 172.128C558.235 172.323 558.072 172.566 557.91 172.859L557.861 172.989C557.829 173.087 557.748 173.217 557.65 173.412C557.553 173.59 557.439 173.786 557.325 173.981C557.212 174.176 557.114 174.354 557.017 174.501C556.935 174.647 556.887 174.744 556.87 174.761C556.822 174.875 556.789 174.956 556.789 174.988C556.546 175.411 556.351 175.752 556.205 176.045C556.042 176.321 555.945 176.549 555.863 176.695C555.815 176.809 555.782 176.874 555.782 176.906C556.334 177.264 556.692 177.491 556.887 177.589C556.984 177.638 557.065 177.686 557.163 177.719C557.26 177.768 557.358 177.816 557.455 177.865C557.878 178.077 558.316 178.369 558.803 178.727L558.82 178.71Z" fill="#717070"/>
<path d="M567.412 185.651C567.282 185.83 567.022 185.83 566.665 185.651C566.373 185.504 566.178 185.326 566.096 185.131C566.129 184.919 566.145 184.659 566.145 184.367C566.145 184.058 566.178 183.7 566.194 183.294C566.308 182.855 566.373 182.53 566.389 182.335C566.389 182.14 566.389 181.977 566.324 181.847C566.145 181.766 565.902 181.669 565.577 181.539C565.252 181.409 564.911 181.262 564.553 181.132C564.196 180.986 563.855 180.872 563.53 180.775C563.205 180.677 562.962 180.628 562.799 180.628C562.62 180.856 562.442 181.116 562.214 181.392C562.003 181.669 561.76 181.961 561.483 182.254C561.402 182.335 561.289 182.384 561.142 182.368C560.996 182.368 560.834 182.302 560.655 182.205C560.476 182.107 560.33 182.01 560.233 181.88C560.135 181.75 560.103 181.636 560.152 181.522C560.249 181.311 560.655 180.758 561.386 179.848C561.386 179.799 561.418 179.734 561.451 179.653C561.516 179.523 561.613 179.361 561.727 179.166C561.857 178.987 561.987 178.808 562.117 178.645C562.247 178.483 562.361 178.337 562.458 178.223C562.555 178.109 562.604 178.044 562.62 178.028L563.774 176.906C563.855 176.776 564.001 176.63 564.196 176.451C564.391 176.272 564.602 176.094 564.813 175.899C565.024 175.72 565.236 175.541 565.43 175.378C565.625 175.216 565.772 175.086 565.853 174.988C566.096 174.696 566.438 174.663 566.876 174.875C567.233 175.053 567.396 175.297 567.396 175.606C567.428 175.899 567.461 176.175 567.493 176.402C567.526 176.63 567.558 176.89 567.591 177.183C567.623 177.459 567.656 177.735 567.672 177.979C567.704 178.223 567.721 178.45 567.721 178.645C567.721 178.84 567.721 178.954 567.721 179.019C567.721 179.263 567.721 179.556 567.753 179.881C567.769 180.206 567.802 180.58 567.867 180.986C567.916 181.181 567.932 181.409 567.932 181.685C567.932 181.961 567.916 182.237 567.883 182.498C567.851 182.774 567.834 183.018 567.802 183.229C567.769 183.44 567.769 183.603 567.802 183.684C567.769 183.765 567.737 183.879 567.721 184.058C567.704 184.237 567.688 184.415 567.656 184.611C567.64 184.806 567.607 184.984 567.591 185.147C567.575 185.309 567.542 185.439 567.526 185.504C567.51 185.553 567.461 185.618 567.396 185.683L567.412 185.651ZM566.243 180.206C566.259 179.913 566.275 179.653 566.291 179.442C566.291 179.231 566.291 179.003 566.291 178.775C566.291 178.548 566.259 178.288 566.226 178.011C566.21 177.719 566.178 177.345 566.145 176.906C565.69 177.215 565.284 177.638 564.927 178.142C564.505 178.45 564.131 178.824 563.822 179.247C564.212 179.328 564.505 179.426 564.716 179.523C564.797 179.556 564.846 179.604 564.878 179.621C565.089 179.669 565.317 179.767 565.593 179.913C565.853 180.043 566.08 180.141 566.259 180.206H566.243Z" fill="#717070"/>
<path d="M581.267 364.459V373.187L609.627 389.554V380.875L581.267 364.475V364.459Z" fill="#9E9E9E"/>
<path d="M617.132 375.43L617.359 385.085L609.627 389.538V380.859L617.132 375.43Z" fill="#9E9E9E"/>
<path d="M581.267 364.459L585.718 357.014L599.573 350.302L612.73 354.999L620.9 366.637L617.148 375.43L609.644 380.859" fill="#E0E1E0"/>
<path d="M620.9 366.62L617.148 375.414L617.375 385.068L620.9 374.991V366.62Z" fill="#9E9E9E"/>
<path d="M618.999 397.568V406.247L604.56 414.618V405.89L618.999 397.551V397.568Z" fill="#9E9E9E"/>
<path d="M604.56 405.906L618.999 397.535L618.269 385.166L602.562 380.859L591.841 383.037L588.365 393.39L594.099 401.42L604.592 405.922L604.56 405.906Z" fill="#E0E1E0"/>
<path d="M604.56 405.906L594.067 401.404L594.684 408.88L604.543 414.618" fill="#9E9E9E"/>
<path d="M588.349 393.374V400.51L594.7 408.88L594.083 401.404L588.349 393.374Z" fill="#9E9E9E"/>
<path d="M636.331 385.507V390.123L628.664 394.544V389.928L636.331 385.507Z" fill="#9E9E9E"/>
<path d="M628.664 389.88L636.282 385.507L635.892 378.957L627.608 376.665L621.923 377.787L620.071 383.297L623.125 387.555L628.664 389.88Z" fill="#E0E1E0"/>
<path d="M628.664 389.88L623.125 387.555L623.434 391.472L628.664 394.528" fill="#9E9E9E"/>
<path d="M620.071 383.297V387.051L623.434 391.472L623.125 387.555L620.071 383.297Z" fill="#9E9E9E"/>
<path d="M172.223 378.713V385.052L161.698 391.131V384.792L172.223 378.713Z" fill="#9E9E9E"/>
<path d="M161.698 384.76L172.223 378.681L171.687 369.66L160.22 366.523L152.374 368.1L149.84 375.658L154.047 381.509L161.698 384.76Z" fill="#E0E1E0"/>
<path d="M161.698 384.76L154.047 381.509L154.502 386.97L161.698 391.131" fill="#9E9E9E"/>
<path d="M149.84 375.658V380.826L154.502 386.97L154.047 381.509L149.84 375.658Z" fill="#9E9E9E"/>
</g>
<defs>
<clipPath id="clip0_4635_7273">
<rect width="817" height="746" fill="white"/>
</clipPath>
</defs>
</svg>
